<svg xmlns="http://www.w3.org/2000/svg" xmlns:xlink="http://www.w3.org/1999/xlink" version="1.1" id="Layer_1" x="0px" y="0px" width="100px" height="100px" viewBox="0 0 100 100" enable-background="new 0 0 100 100" xml:space="preserve">
<g>
	<g>
		<rect x="19.923" y="51.516" width="34.879" height="3.412"/>
		<rect x="19.923" y="41.991" width="34.879" height="3.412"/>
		<polygon points="54.802,61.041 46.568,61.041 49.98,64.453 54.802,64.453   "/>
		<rect x="19.923" y="32.466" width="34.879" height="3.412"/>
		<path d="M68.07,81.977v10.768c0,0.313-0.256,0.568-0.568,0.568H56.734l-1.874,1.875l-1.874-1.875H14.538    c-0.312,0-0.567-0.255-0.567-0.568V14.837c0-0.313,0.255-0.568,0.567-0.568h4.873v3.98c0,3.449,2.806,6.255,6.256,6.255h30.707    c3.45,0,6.255-2.806,6.255-6.255v-3.98h4.873c0.312,0,0.568,0.255,0.568,0.568v41.286l5.687-5.687v-35.6    c0-3.449-2.806-6.255-6.255-6.255h-4.873V7.255C62.629,3.806,59.824,1,56.374,1H25.667c-3.45,0-6.256,2.806-6.256,6.255v1.327    h-4.873c-3.447,0-6.255,2.807-6.255,6.255v77.907c0,3.449,2.808,6.256,6.255,6.256h52.964c3.449,0,6.255-2.807,6.255-6.256V76.29    L68.07,81.977z M25.097,8.582V7.255c0-0.314,0.256-0.568,0.57-0.568h30.707c0.314,0,0.569,0.254,0.569,0.568v1.327v9.667    c0,0.313-0.255,0.569-0.569,0.569H25.667c-0.314,0-0.57-0.255-0.57-0.569V8.582z"/>
		<polygon points="19.923,64.453 32.98,64.453 36.393,61.041 19.923,61.041   "/>
		<polygon points="19.923,73.979 33.651,73.979 31.048,71.375 30.239,70.566 19.923,70.566   "/>
	</g>
	<polygon points="54.86,74.322 41.48,60.942 33.542,68.881 54.86,90.198 62.798,82.26 91.717,53.341 83.779,45.403  "/>
</g>
</svg>