<svg xmlns="http://www.w3.org/2000/svg" xmlns:xlink="http://www.w3.org/1999/xlink" version="1.1" id="Layer_1" x="0px" y="0px" width="96px" height="96px" viewBox="0 0 96 96" enable-background="new 0 0 96 96" xml:space="preserve">
<path d="M90,24.936H48v12h8v-8h8v8h8v-8h8v8h8v8h-8v8h8v8h-8v8h-8v-8h-8v8h-8v-8h-8v8H35.072l-5.62,3.893  c0.176,0.056,0.352,0.107,0.548,0.107h60c1.104,0,2-0.896,2-2v-44C92,25.832,91.1,24.936,90,24.936L90,24.936z"/>
<path d="M64,44.936h8v8h-8V44.936z"/>
<path d="M28,68.968l4-2.768v-5.261h7.596L44,57.893v-8.953h-8v8h-8v-8h-8v8h-8v-8h8v-8h-8v-8h8v-8h-8v-8h8v8h8v-8h8v8h8v-12H12  c0-0.084-0.036-0.148-0.048-0.228C14.3,11.892,16,9.68,16,7.064c0-3.308-2.692-6-6-6s-6,2.688-6,6c0,2.616,1.7,4.828,4.048,5.648  C8.04,12.788,8,12.852,8,12.936v80c0,1.104,0.896,2,2,2s2-0.896,2-2v-32h16V68.968z M10,9.064c-1.104,0-2-0.904-2-2  c0-1.1,0.896-2,2-2s2,0.896,2,2C12,8.16,11.104,9.064,10,9.064z"/>
<path d="M56,52.936h8v8h-8V52.936z"/>
<path d="M36,32.936h8v8h-8V32.936z"/>
<path d="M28,24.936h8v8h-8V24.936z"/>
<path d="M72,36.936h8v8h-8V36.936z"/>
<path d="M48,44.936h8v8h-8V44.936z"/>
<path d="M72,52.936h8v8h-8V52.936z"/>
<path d="M20,32.936h8v8h-8V32.936z"/>
<path d="M56,36.936h8v8h-8V36.936z"/>
<path d="M28,40.936h8v8h-8V40.936z"/>
</svg>