<svg xmlns="http://www.w3.org/2000/svg" xmlns:xlink="http://www.w3.org/1999/xlink" version="1.1" id="Layer_1" x="0px" y="0px" width="93.458px" height="100px" viewBox="0 0 93.458 100" enable-background="new 0 0 93.458 100" xml:space="preserve">
<path d="M29.938,56.604c0.043-0.06,0.947-1.269,3.057-2.079c0.017-0.006,0.371-0.114,0.908-0.296  c-1.817-1.104-3.542-1.761-3.542-1.761c-1.834-0.646-2.394-1.291-2.564-1.621c-0.019-0.041-0.034-0.076-0.047-0.106  c0-0.005,0-0.011,0-0.015c0,0-0.011-0.04-0.029-0.103v-0.001c-0.07-0.254-0.245-0.905-0.245-1.065c0,0-0.01,0.052-0.031,0.143  c-0.013-0.159-0.016-0.327-0.007-0.507c0,0-0.015,0.017-0.043,0.046c0.609-0.78,1.103-1.673,1.432-2.581  c0.56-0.559,0.844-1.918,0.844-1.918c0.372-1.04,0.264-1.571,0.092-1.84c0.053-0.157,0.943-2.915-0.315-5.041  c0,0-0.448-2.011-2.815-2.905c-2.188-1.34-5.451-0.536-5.451-0.536c-3.976,0.67-4.827,5.348-4.827,5.348  c-0.237,2.136,0.335,3.472,0.358,3.526c-0.203,0.506,0.167,1.828,0.167,1.828c0.126,0.807,0.521,1.053,0.636,1.109  c0.277,1.002,0.754,1.979,1.356,2.827c-0.004-0.004-0.008-0.008-0.013-0.013c0,0,0.066,0.328,0.005,0.787  c-0.009-0.047-0.013-0.074-0.013-0.074c0,0.188-0.229,0.873-0.257,0.961c-0.002,0.004-0.004,0.009-0.007,0.013  c-0.185,0.247-0.369,0.472-0.551,0.677c-1.482,1.144-5.042,2.224-5.042,2.224c-1.549,0.596-2.205,1.489-2.205,1.489  c-2.293,3.396-2.562,6.789-2.562,6.789c0.03,1.728,0.774,1.906,0.774,1.906c5.272,2.354,13.662,2.492,13.662,2.492  c1.351,0.028,2.631-0.012,3.844-0.09c-0.01-0.139-0.027-0.263-0.03-0.418C26.483,65.729,26.878,61.133,29.938,56.604z"/>
<path d="M83.33,55.805c-2.282-2.033-5.719-3.337-5.719-3.337c-1.834-0.646-2.395-1.291-2.564-1.621  c-0.019-0.041-0.034-0.076-0.048-0.106c0-0.005,0-0.011,0-0.015c0,0-0.011-0.04-0.028-0.103v-0.001  c-0.07-0.254-0.245-0.905-0.245-1.065c0,0-0.01,0.052-0.031,0.143c-0.012-0.159-0.016-0.327-0.006-0.507  c0,0-0.016,0.017-0.044,0.046c0.609-0.78,1.104-1.673,1.433-2.581c0.559-0.559,0.844-1.918,0.844-1.918  c0.372-1.04,0.264-1.571,0.093-1.84c0.053-0.157,0.942-2.915-0.315-5.041c0,0-0.448-2.011-2.815-2.905  c-2.188-1.34-5.45-0.536-5.45-0.536c-3.976,0.67-4.827,5.348-4.827,5.348c-0.237,2.136,0.335,3.472,0.358,3.526  c-0.203,0.506,0.166,1.828,0.166,1.828c0.127,0.807,0.521,1.053,0.637,1.109c0.276,1.002,0.755,1.979,1.356,2.827  c-0.004-0.004-0.009-0.008-0.013-0.013c0,0,0.065,0.328,0.005,0.787c-0.009-0.047-0.014-0.074-0.014-0.074  c0,0.188-0.228,0.873-0.257,0.961c-0.002,0.004-0.004,0.009-0.007,0.013c-0.185,0.247-0.368,0.472-0.551,0.677  c-1.481,1.144-5.041,2.224-5.041,2.224c-0.474,0.183-0.854,0.392-1.168,0.596c1.536,0.782,3.438,1.897,4.951,3.245  c0.122,0.087,3.22,2.402,2.932,8.666c1.765,0.15,2.955,0.17,2.955,0.17c8.489,0.179,14.546-2.135,14.546-2.135  c0.896-0.566,0.923-1.012,0.923-1.012C86.01,57.738,83.33,55.805,83.33,55.805z"/>
<path d="M63.716,57.859c-1.567-1.396-3.552-2.533-5.097-3.306c-1.405-0.702-2.449-1.104-2.471-1.112  c-2.399-0.845-3.257-1.706-3.553-2.28l-0.12-0.346c-0.033-0.122-0.064-0.237-0.093-0.346l-0.157,0.672L52.1,49.537  c-0.019-0.239-0.022-0.471-0.01-0.709l-0.005-0.079c0.792-1.014,1.439-2.18,1.871-3.373l0.059-0.092  c0.685-0.684,1.055-2.415,1.058-2.432c0.502-1.408,0.313-2.022,0.157-2.267l-0.064-0.101l0.038-0.113  c0.051-0.152,1.23-3.762-0.397-6.514l-0.029-0.073c-0.006-0.025-0.614-2.567-3.598-3.693c-1.123-0.682-2.533-1.018-4.235-1.018  c-1.602,0-2.873,0.309-2.885,0.312c-5.088,0.858-6.239,6.872-6.25,6.932c-0.305,2.746,0.43,4.484,0.461,4.557l0.042,0.096  l-0.039,0.097c-0.174,0.434,0.049,1.627,0.23,2.276c0.155,0.978,0.588,1.259,0.717,1.322l0.101,0.05l0.03,0.108  c0.353,1.279,0.965,2.555,1.771,3.691l1.362,1.918l-1.292-1.184c-0.002,0.142-0.013,0.303-0.036,0.476l-0.206,1.545l-0.098-0.522  c-0.018,0.056-0.037,0.114-0.057,0.176l-0.031,0.076c-0.265,0.362-0.517,0.671-0.772,0.959c-1.384,1.072-3.98,2.071-5.546,2.614  c-0.723,0.252-1.228,0.406-1.29,0.425c-1.946,0.749-2.803,1.883-2.811,1.895c-2.977,4.407-3.364,8.879-3.368,8.923  c0.002,0.139,0.017,0.249,0.025,0.371c0.125,1.658,0.815,1.907,0.823,1.91c6.938,3.094,18.043,3.312,18.155,3.313  c11.171,0.229,19.224-2.8,19.302-2.829c0.993-0.634,1.07-1.135,1.07-1.14c0.055-0.472,0.087-0.919,0.104-1.351  C66.711,60.125,63.749,57.883,63.716,57.859z"/>
</svg>