<svg xmlns="http://www.w3.org/2000/svg" xmlns:xlink="http://www.w3.org/1999/xlink" version="1.1" id="Layer_1" x="0px" y="0px" width="100px" height="100px" viewBox="0 0 100 100" enable-background="new 0 0 100 100" xml:space="preserve">
<g>
	<path d="M31.842,92.646c-1.497,0-2.887-0.962-3.362-2.465L10.277,32.535c-0.586-1.857,0.444-3.839,2.301-4.425   c1.856-0.587,3.839,0.442,4.424,2.301l18.204,57.645c0.586,1.857-0.443,3.838-2.301,4.426   C32.551,92.592,32.194,92.646,31.842,92.646z"/>
</g>
<path d="M89.62,35.026L77.078,6.726c-0.16-0.402-0.53-0.687-0.96-0.735c-0.423-0.049-0.852,0.134-1.1,0.49  c-0.074,0.109-7.991,10.208-27.199,9.393c-21.156-0.864-25.45,16.37-25.49,16.541c-0.048,0.204-0.04,0.337,0.022,0.537  l11.365,36.531C33.869,69.979,34.327,71,34.84,71c0.016,0,0.032,0,0.049,0c0.532,0,0.983-1.09,1.099-1.611  c0.167-0.76,4.32-18.23,23.541-18.23c20.287,0,25.067-5.981,29.21-12.509c0.255-0.403,0.858-1.699,0.858-1.699  C89.734,36.656,89.917,36.083,89.62,35.026z"/>
</svg>